<?xml version="1.0" encoding="UTF-8" standalone="no"?>
<!-- Created with Inkscape (http://www.inkscape.org/) -->

<svg
   width="64pt"
   height="64pt"
   viewBox="0 0 22.577778 22.577778"
   version="1.1"
   id="svg831"
   inkscape:version="1.1.2 (b8e25be833, 2022-02-05)"
   sodipodi:docname="Export - Unblash - 64px.svg.2022_11_25_22_15_20.0.svg"
   inkscape:export-filename="E:\Icon Design\TR Icon Design Project\Carlos - Icon Design Project\November\Asli Siap\Line\20 - Real Estate Sellers.png"
   inkscape:export-xdpi="576"
   inkscape:export-ydpi="576"
   xmlns:inkscape="http://www.inkscape.org/namespaces/inkscape"
   xmlns:sodipodi="http://sodipodi.sourceforge.net/DTD/sodipodi-0.dtd"
   xmlns="http://www.w3.org/2000/svg"
   xmlns:svg="http://www.w3.org/2000/svg"
   xmlns:rdf="http://www.w3.org/1999/02/22-rdf-syntax-ns#"
   xmlns:cc="http://creativecommons.org/ns#"
   xmlns:dc="http://purl.org/dc/elements/1.1/">
  <defs
     id="defs825">
    <pattern
       id="EMFhbasepattern"
       patternUnits="userSpaceOnUse"
       width="6"
       height="6"
       x="0"
       y="0" />
    <pattern
       id="EMFhbasepattern-9"
       patternUnits="userSpaceOnUse"
       width="6"
       height="6"
       x="0"
       y="0" />
    <pattern
       id="EMFhbasepattern-0"
       patternUnits="userSpaceOnUse"
       width="6"
       height="6"
       x="0"
       y="0" />
    <pattern
       id="EMFhbasepattern-7"
       patternUnits="userSpaceOnUse"
       width="6"
       height="6"
       x="0"
       y="0" />
    <pattern
       id="EMFhbasepattern-2"
       patternUnits="userSpaceOnUse"
       width="6"
       height="6"
       x="0"
       y="0" />
    <pattern
       id="EMFhbasepattern-98"
       patternUnits="userSpaceOnUse"
       width="6"
       height="6"
       x="0"
       y="0" />
    <pattern
       id="EMFhbasepattern-6"
       patternUnits="userSpaceOnUse"
       width="6"
       height="6"
       x="0"
       y="0" />
    <pattern
       id="EMFhbasepattern-01"
       patternUnits="userSpaceOnUse"
       width="6"
       height="6"
       x="0"
       y="0" />
    <pattern
       id="EMFhbasepattern-07"
       patternUnits="userSpaceOnUse"
       width="6"
       height="6"
       x="0"
       y="0" />
    <pattern
       id="EMFhbasepattern-8"
       patternUnits="userSpaceOnUse"
       width="6"
       height="6"
       x="0"
       y="0" />
    <pattern
       id="EMFhbasepattern-4"
       patternUnits="userSpaceOnUse"
       width="6"
       height="6"
       x="0"
       y="0" />
    <pattern
       id="EMFhbasepattern-40"
       patternUnits="userSpaceOnUse"
       width="6"
       height="6"
       x="0"
       y="0" />
    <pattern
       id="EMFhbasepattern-08"
       patternUnits="userSpaceOnUse"
       width="6"
       height="6"
       x="0"
       y="0" />
    <pattern
       id="EMFhbasepattern-04"
       patternUnits="userSpaceOnUse"
       width="6"
       height="6"
       x="0"
       y="0" />
    <pattern
       id="EMFhbasepattern-014"
       patternUnits="userSpaceOnUse"
       width="6"
       height="6"
       x="0"
       y="0" />
    <pattern
       id="EMFhbasepattern-27"
       patternUnits="userSpaceOnUse"
       width="6"
       height="6"
       x="0"
       y="0" />
    <pattern
       id="EMFhbasepattern-09"
       patternUnits="userSpaceOnUse"
       width="6"
       height="6"
       x="0"
       y="0" />
    <pattern
       id="EMFhbasepattern-5"
       patternUnits="userSpaceOnUse"
       width="6"
       height="6"
       x="0"
       y="0" />
    <pattern
       id="EMFhbasepattern-018"
       patternUnits="userSpaceOnUse"
       width="6"
       height="6"
       x="0"
       y="0" />
  </defs>
  <sodipodi:namedview
     id="base"
     pagecolor="#ffffff"
     bordercolor="#666666"
     borderopacity="1.0"
     inkscape:pageopacity="0.0"
     inkscape:pageshadow="2"
     inkscape:zoom="5.8076922"
     inkscape:cx="42.615895"
     inkscape:cy="41.84106"
     inkscape:document-units="pt"
     inkscape:current-layer="layer1"
     showgrid="false"
     units="pt"
     inkscape:window-width="958"
     inkscape:window-height="1041"
     inkscape:window-x="-7"
     inkscape:window-y="0"
     inkscape:window-maximized="0"
     inkscape:pagecheckerboard="true"
     inkscape:showpageshadow="false"
     inkscape:object-paths="true"
     inkscape:snap-intersection-paths="true"
     inkscape:snap-smooth-nodes="true"
     inkscape:snap-midpoints="true"
     showguides="true"
     inkscape:snap-bbox="true"
     inkscape:bbox-nodes="true"
     inkscape:snap-nodes="false"
     inkscape:snap-global="true"
     inkscape:snap-others="false">
    <inkscape:grid
       type="xygrid"
       id="grid1378" />
    <sodipodi:guide
       position="0.97013831,21.607643"
       orientation="78.000048,0"
       id="guide1380"
       inkscape:locked="false" />
    <sodipodi:guide
       position="0.97013831,0.97013129"
       orientation="0,78.000005"
       id="guide1382"
       inkscape:locked="false" />
    <sodipodi:guide
       position="21.607639,0.97013129"
       orientation="-78.000048,0"
       id="guide1384"
       inkscape:locked="false" />
    <sodipodi:guide
       position="21.607639,21.607643"
       orientation="0,-78.000005"
       id="guide1386"
       inkscape:locked="false" />
  </sodipodi:namedview>
  <metadata
     id="metadata828">
    <rdf:RDF>
      <cc:Work
         rdf:about="">
        <dc:format>image/svg+xml</dc:format>
        <dc:type
           rdf:resource="http://purl.org/dc/dcmitype/StillImage" />
      </cc:Work>
    </rdf:RDF>
  </metadata>
  <g
     inkscape:label="Icon"
     inkscape:groupmode="layer"
     id="layer1"
     transform="translate(0,-274.42223)">
    <path
       id="path61344"
       style="color:#000000;display:inline;fill:#000000;stroke-width:0.999999;stroke-linecap:round;stroke-linejoin:round;-inkscape-stroke:none"
       d="m 14.951385,275.39235 c -0.36392,0 -0.665495,0.30222 -0.665495,0.66614 v 0.6018 h 3.993621 v -0.6018 c 0,-0.36392 -0.301592,-0.66614 -0.665498,-0.66614 z m 6.436468,7.37503 -9.971372,-5.75614 c -0.08724,-0.0503 -0.187132,-0.0378 -0.252809,0 -3.3241515,1.9192 -6.6483675,3.83831 -9.9725633,5.75744 l 0.5004204,0.8624 9.4326119,-5.44289 c 0.102786,-0.0592 0.22931,-0.0592 0.3321,0 l 9.431956,5.4442 z m -6.767914,-5.44159 v 0.76622 l 3.283931,1.8964 v -2.66262 z m -3.330725,1.53245 -8.6540349,4.99772 v 6.75048 c 0.2840605,-0.0371 0.580066,0.005 0.8455149,0.13258 0.2210017,-0.2375 0.5221547,-0.37408 0.8247212,-0.375 0.3074989,-9.3e-4 0.6158127,0.13571 0.8377187,0.37825 0.3572746,-0.17475 0.7692825,-0.19246 1.1327723,-0.0663 0.4141043,0.14373 0.7724566,0.51216 0.854615,1.01189 0.4191524,0.21698 0.6732285,0.6297 0.6927909,1.04374 0.014111,0.29856 -0.076376,0.60316 -0.282706,0.84031 -0.1427685,0.16411 -0.3438683,0.28621 -0.5790598,0.34705 v 1.04048 H 6.2960509 V 293.9625 H 2.3024321 v 0.99694 H 1.3041896 c -0.1847884,-7.3e-4 -0.33477062,0.14927 -0.33404875,0.33405 6.6529e-4,0.18378 0.15027535,0.33216 0.33404875,0.33145 H 21.276188 c 0.182759,-6.9e-4 0.330731,-0.14869 0.331448,-0.33145 6.66e-4,-0.18377 -0.147671,-0.33333 -0.331448,-0.33405 H 20.27665 v -0.99694 h -3.994275 v 0.99694 h -0.665496 v -1.04632 c -0.498019,-0.1382 -0.820651,-0.57075 -0.857862,-1.0171 -0.03936,-0.47207 0.20587,-0.98472 0.693439,-1.22376 0.0869,-0.49177 0.44158,-0.85407 0.851364,-0.99629 0.359897,-0.12488 0.768198,-0.11017 1.123023,0.0597 0.216868,-0.23668 0.520275,-0.36508 0.829918,-0.37175 0.317828,-0.001 0.632662,0.12616 0.857224,0.3685 0.261939,-0.12262 0.552162,-0.16251 0.831217,-0.12608 v -6.74918 z m 0.167056,0.84292 2.288935,1.32124 c 0.158428,0.0924 0.212204,0.2956 0.12023,0.45428 -0.0922,0.15866 -0.295424,0.21274 -0.454277,0.12085 l -2.121918,-1.22376 -2.122562,1.22376 c -0.1588535,0.0918 -0.3620901,0.0377 -0.4542805,-0.12085 -0.09153,-0.15937 -0.036534,-0.36275 0.1228326,-0.45428 l 2.2889399,-1.32124 c 0.08236,-0.0541 0.23826,-0.0542 0.3321,0 z m -0.167056,1.61825 c 0.915165,0 1.665037,0.7505 1.665037,1.66568 0,0.91516 -0.749859,1.66309 -1.665037,1.66309 -0.915173,0 -1.6630892,-0.74793 -1.6630867,-1.66309 -6.2e-6,-0.91518 0.7479207,-1.66569 1.6630867,-1.66568 z m -0.997585,1.66568 c 0,0.55551 0.442082,0.9976 0.997591,0.9976 0.555508,0 0.999543,-0.44209 0.999543,-0.9976 0,-0.55552 -0.444021,-0.99954 -1.012541,-0.99954 -0.55625,0.0136 -0.984593,0.45271 -0.984593,0.99954 z m -5.9907551,0.995 H 7.626399 c 0.1847871,-7.3e-4 0.3347706,0.14925 0.3340487,0.33405 -6.665e-4,0.18376 -0.1502765,0.33216 -0.3340487,0.33145 H 4.3008739 c -0.1837735,7.3e-4 -0.3333332,-0.14769 -0.3340487,-0.33145 -6.653e-4,-0.1848 0.1492603,-0.33478 0.3340487,-0.33405 z m 10.6453201,0 h 3.326174 c 0.184783,-7.3e-4 0.334768,0.14925 0.334051,0.33405 -6.66e-4,0.18376 -0.150274,0.33216 -0.334051,0.33145 h -3.326174 c -0.183774,7.3e-4 -0.333333,-0.14769 -0.334049,-0.33145 -6.65e-4,-0.1848 0.149261,-0.33478 0.334049,-0.33405 z m -10.9793688,1.33098 h 3.9936225 c 0.1837697,-7.3e-4 0.3333294,0.14769 0.334045,0.33145 9.973e-4,0.15271 -0.1022704,0.28643 -0.2502102,0.3243 v 3.01423 c 0.1479398,0.0378 0.2511043,0.17159 0.2502102,0.3243 -6.653e-4,0.18376 -0.1502753,0.33216 -0.334045,0.33145 H 3.9668252 c -0.1827586,-7.1e-4 -0.3307349,-0.1487 -0.3314467,-0.33145 -3.056e-4,-0.15124 0.1014151,-0.28366 0.2476106,-0.32236 v -3.01811 c -0.1461993,-0.0387 -0.2479162,-0.17113 -0.2476106,-0.32236 6.653e-4,-0.18276 0.1486881,-0.33073 0.3314467,-0.33145 z m 10.6453198,0 h 3.994274 c 0.183765,-7.3e-4 0.333322,0.14769 0.334039,0.33145 6.66e-4,0.1529 -0.102623,0.28668 -0.250859,0.3243 v 3.01423 c 0.148199,0.0376 0.251676,0.1714 0.250859,0.3243 -6.67e-4,0.18376 -0.150274,0.33216 -0.334039,0.33145 h -3.994274 c -0.182757,-7.1e-4 -0.330733,-0.1487 -0.331445,-0.33145 -2.3e-4,-0.15143 0.101805,-0.28391 0.248259,-0.32236 v -3.01811 c -0.146459,-0.0385 -0.248489,-0.17094 -0.248259,-0.32236 6.65e-4,-0.18276 0.148688,-0.33073 0.331445,-0.33145 z m -4.9834118,0.003 h 3.3209758 c 0.365906,0 0.670044,0.30481 0.670044,0.67069 v 7.70519 c 0.38562,0.13792 0.666143,0.50544 0.666143,0.93585 v 0.33405 h -0.666143 v -0.33405 c -1.4e-5,-0.18631 -0.142543,-0.33145 -0.328848,-0.33145 H 9.2894867 c -0.1863076,0 -0.3288472,0.14516 -0.3288472,0.33145 v 0.33405 H 8.2944927 v -0.33405 c 0,-0.43041 0.2804926,-0.79793 0.6661468,-0.93585 v -7.70519 c -3.02e-5,-0.36588 0.3021917,-0.67069 0.6680937,-0.67069 z m -5.0795997,0.66289 v 1.16462 h 1.0827299 v -1.16462 z m 1.7488742,0 v 1.16462 h 1.0807806 v -1.16462 z m 8.8964453,0 v 1.16462 h 1.083381 v -1.16462 z m 1.748875,0 v 1.16462 h 1.080784 v -1.16462 z m -7.3171642,0.008 v 7.64409 h 3.3281242 v -7.64409 z m -5.0770303,1.82232 v 1.16461 h 1.0827299 v -1.16461 z m 1.7488742,0 v 1.16461 h 1.0807806 v -1.16461 z m 8.8964453,0 v 1.16461 h 1.083381 v -1.16461 z m 1.748875,0 v 1.16461 h 1.080784 v -1.16461 z m -4.654565,2.493 c 0.183769,7.3e-4 0.332165,0.15028 0.331446,0.33404 v 0.3321 c 6.65e-4,0.18377 -0.147673,0.33334 -0.331446,0.33406 -0.184787,7.3e-4 -0.334771,-0.14927 -0.334049,-0.33406 v -0.3321 c -6.65e-4,-0.18478 0.149262,-0.33477 0.334049,-0.33404 z m -8.4941612,1.11068 c -0.1200784,0.13905 -0.3301325,0.15446 -0.4692237,0.0345 -0.2105798,-0.18145 -0.5331816,-0.22804 -0.7857272,-0.14039 -0.2525317,0.0877 -0.4224323,0.25623 -0.4224323,0.60181 6.653e-4,0.1497 -0.098912,0.28103 -0.2515105,0.32365 -0.3301929,0.0987 -0.4451338,0.35967 -0.4243829,0.6096 0.021191,0.2542 0.1413046,0.45688 0.5283661,0.45688 h 4.6597656 c 0.3870087,0 0.506462,-0.2027 0.5277147,-0.45688 0.021229,-0.25417 -0.097906,-0.51907 -0.4321827,-0.61155 -0.1442097,-0.0404 -0.2437271,-0.17233 -0.2430593,-0.32299 -6.653e-4,-0.34004 -0.1739162,-0.50821 -0.4321815,-0.59792 -0.2587847,-0.0899 -0.5892567,-0.0436 -0.8006741,0.13258 -0.1416844,0.11759 -0.3844632,0.0888 -0.4692274,-0.0441 -0.1109102,-0.2096 -0.2137138,-0.3659 -0.4913214,-0.3659 -0.221457,0 -0.3930617,0.14347 -0.4939234,0.38085 z m 13.9805952,0 c -0.120078,0.13905 -0.330132,0.15446 -0.469227,0.0345 -0.210576,-0.18145 -0.533182,-0.22804 -0.785727,-0.14039 -0.252528,0.0877 -0.422433,0.25623 -0.422433,0.60181 6.66e-4,0.1497 -0.09891,0.28103 -0.25151,0.32365 -0.330189,0.0987 -0.445134,0.35967 -0.424383,0.6096 0.02119,0.2542 0.141307,0.45688 0.528366,0.45688 h 4.659764 c 0.38701,0 0.50646,-0.2027 0.527714,-0.45688 0.02125,-0.25417 -0.09784,-0.51907 -0.432172,-0.61155 -0.144212,-0.0404 -0.243728,-0.17233 -0.243061,-0.32299 -6.67e-4,-0.34004 -0.173918,-0.50821 -0.432184,-0.59792 -0.258783,-0.0899 -0.589262,-0.0436 -0.800682,0.13258 -0.141684,0.11759 -0.384457,0.0888 -0.469221,-0.0441 -0.109074,-0.2061 -0.210279,-0.36066 -0.484449,-0.36582 -0.228325,-8e-5 -0.399933,0.14339 -0.500795,0.38077 z"
       sodipodi:nodetypes="ssccssscccccccccccccccccscscsscccccccsccscccccccscscccccccsccccccccsssssscscscccccccccccccccscccccccccccscccccccccccscccsccssssccsccsccccccccccccscccscccsccsccccccccccccccccccccscccccsscccccsssccsccsscccccsssccsccsccccc" />
  </g>
</svg>
