<?xml version="1.0" encoding="UTF-8" standalone="no"?>
<!-- Created with Inkscape (http://www.inkscape.org/) -->

<svg
   width="64pt"
   height="64pt"
   viewBox="0 0 22.577778 22.577778"
   version="1.1"
   id="svg831"
   inkscape:version="1.1.2 (0a00cf5339, 2022-02-04)"
   sodipodi:docname="01 - House Building.svg"
   inkscape:export-filename="/media/taufikramadhan/Data/Tr Design Studio/Project Design/TR Creative Design/Icon Design/Project Hiring/Icon Icons/024 - Real Estate And Building/Team/Asli Siap/Line/01 - House Building.png"
   inkscape:export-xdpi="576"
   inkscape:export-ydpi="576"
   xmlns:inkscape="http://www.inkscape.org/namespaces/inkscape"
   xmlns:sodipodi="http://sodipodi.sourceforge.net/DTD/sodipodi-0.dtd"
   xmlns="http://www.w3.org/2000/svg"
   xmlns:svg="http://www.w3.org/2000/svg"
   xmlns:rdf="http://www.w3.org/1999/02/22-rdf-syntax-ns#"
   xmlns:cc="http://creativecommons.org/ns#"
   xmlns:dc="http://purl.org/dc/elements/1.1/">
  <defs
     id="defs825">
    <pattern
       id="EMFhbasepattern"
       patternUnits="userSpaceOnUse"
       width="6"
       height="6"
       x="0"
       y="0" />
    <pattern
       id="EMFhbasepattern-9"
       patternUnits="userSpaceOnUse"
       width="6"
       height="6"
       x="0"
       y="0" />
    <pattern
       id="EMFhbasepattern-0"
       patternUnits="userSpaceOnUse"
       width="6"
       height="6"
       x="0"
       y="0" />
    <pattern
       id="EMFhbasepattern-7"
       patternUnits="userSpaceOnUse"
       width="6"
       height="6"
       x="0"
       y="0" />
    <pattern
       id="EMFhbasepattern-2"
       patternUnits="userSpaceOnUse"
       width="6"
       height="6"
       x="0"
       y="0" />
    <pattern
       id="EMFhbasepattern-98"
       patternUnits="userSpaceOnUse"
       width="6"
       height="6"
       x="0"
       y="0" />
    <pattern
       id="EMFhbasepattern-6"
       patternUnits="userSpaceOnUse"
       width="6"
       height="6"
       x="0"
       y="0" />
    <pattern
       id="EMFhbasepattern-01"
       patternUnits="userSpaceOnUse"
       width="6"
       height="6"
       x="0"
       y="0" />
    <pattern
       id="EMFhbasepattern-07"
       patternUnits="userSpaceOnUse"
       width="6"
       height="6"
       x="0"
       y="0" />
    <pattern
       id="EMFhbasepattern-8"
       patternUnits="userSpaceOnUse"
       width="6"
       height="6"
       x="0"
       y="0" />
    <pattern
       id="EMFhbasepattern-4"
       patternUnits="userSpaceOnUse"
       width="6"
       height="6"
       x="0"
       y="0" />
    <pattern
       id="EMFhbasepattern-40"
       patternUnits="userSpaceOnUse"
       width="6"
       height="6"
       x="0"
       y="0" />
    <pattern
       id="EMFhbasepattern-08"
       patternUnits="userSpaceOnUse"
       width="6"
       height="6"
       x="0"
       y="0" />
    <pattern
       id="EMFhbasepattern-04"
       patternUnits="userSpaceOnUse"
       width="6"
       height="6"
       x="0"
       y="0" />
    <pattern
       id="EMFhbasepattern-014"
       patternUnits="userSpaceOnUse"
       width="6"
       height="6"
       x="0"
       y="0" />
    <pattern
       id="EMFhbasepattern-27"
       patternUnits="userSpaceOnUse"
       width="6"
       height="6"
       x="0"
       y="0" />
    <pattern
       id="EMFhbasepattern-09"
       patternUnits="userSpaceOnUse"
       width="6"
       height="6"
       x="0"
       y="0" />
    <pattern
       id="EMFhbasepattern-5"
       patternUnits="userSpaceOnUse"
       width="6"
       height="6"
       x="0"
       y="0" />
    <pattern
       id="EMFhbasepattern-018"
       patternUnits="userSpaceOnUse"
       width="6"
       height="6"
       x="0"
       y="0" />
  </defs>
  <sodipodi:namedview
     id="base"
     pagecolor="#ffffff"
     bordercolor="#666666"
     borderopacity="1.0"
     inkscape:pageopacity="0.0"
     inkscape:pageshadow="2"
     inkscape:zoom="49.386989"
     inkscape:cx="17.008528"
     inkscape:cy="63.022672"
     inkscape:document-units="pt"
     inkscape:current-layer="layer1"
     showgrid="false"
     units="pt"
     inkscape:window-width="1366"
     inkscape:window-height="719"
     inkscape:window-x="0"
     inkscape:window-y="26"
     inkscape:window-maximized="1"
     inkscape:pagecheckerboard="true"
     inkscape:showpageshadow="false"
     inkscape:object-paths="true"
     inkscape:snap-intersection-paths="true"
     inkscape:snap-smooth-nodes="true"
     inkscape:snap-midpoints="true"
     showguides="true"
     inkscape:snap-bbox="true"
     inkscape:bbox-nodes="true"
     inkscape:snap-nodes="false"
     inkscape:snap-global="true"
     inkscape:snap-others="false">
    <inkscape:grid
       type="xygrid"
       id="grid1378" />
    <sodipodi:guide
       position="0.97013831,21.607643"
       orientation="78.000048,0"
       id="guide1380"
       inkscape:locked="false" />
    <sodipodi:guide
       position="0.97013831,0.97013129"
       orientation="0,78.000005"
       id="guide1382"
       inkscape:locked="false" />
    <sodipodi:guide
       position="21.607639,0.97013129"
       orientation="-78.000048,0"
       id="guide1384"
       inkscape:locked="false" />
    <sodipodi:guide
       position="21.607639,21.607643"
       orientation="0,-78.000005"
       id="guide1386"
       inkscape:locked="false" />
  </sodipodi:namedview>
  <metadata
     id="metadata828">
    <rdf:RDF>
      <cc:Work
         rdf:about="">
        <dc:format>image/svg+xml</dc:format>
        <dc:type
           rdf:resource="http://purl.org/dc/dcmitype/StillImage" />
      </cc:Work>
    </rdf:RDF>
  </metadata>
  <g
     inkscape:label="Icon"
     inkscape:groupmode="layer"
     id="layer1"
     transform="translate(0,-274.42223)">
    <path
       id="path21754"
       style="color:#000000;display:inline;fill:#000000;stroke-width:1;stroke-linecap:round;stroke-linejoin:round;-inkscape-stroke:none"
       d="m 18.95619,290.84222 c -0.216941,-0.23325 -0.514262,-0.36521 -0.811278,-0.36611 -0.301076,-9.1e-4 -0.603193,0.13295 -0.821487,0.36993 -0.351299,-0.17155 -0.757499,-0.1876 -1.114235,-0.0638 -0.404448,0.14038 -0.754655,0.49919 -0.837429,0.98604 -0.414546,0.21218 -0.661896,0.62324 -0.68117,1.03133 -0.01385,0.293 0.07431,0.59191 0.276806,0.82466 0.140369,0.16135 0.337502,0.28293 0.568914,0.34251 v 1.0192 h -1.306212 v -0.32783 c 0,-0.42211 -0.275104,-0.78596 -0.653743,-0.92163 v -7.55855 c 0,-0.35908 -0.298482,-0.6582 -0.65757,-0.6582 H 9.6596329 c -0.3590878,0 -0.6582075,0.29912 -0.6582075,0.6582 v 7.55855 c -0.3783471,0.13582 -0.6531056,0.49972 -0.6531056,0.92162 v 0.32783 H 7.0414677 v -1.0192 c 0.231415,-0.0596 0.4285452,-0.18116 0.5689173,-0.34251 0.2024955,-0.23275 0.2912821,-0.53166 0.2774428,-0.82466 -0.019267,-0.40801 -0.2667579,-0.81912 -0.6811701,-1.03133 -0.082768,-0.48686 -0.4329734,-0.84565 -0.837429,-0.98604 -0.3566938,-0.1238 -0.762965,-0.10774 -1.1142348,0.0638 -0.2182974,-0.23703 -0.5203818,-0.37083 -0.8214867,-0.36993 -0.2973363,9.3e-4 -0.5949045,0.13304 -0.8112785,0.36673 -0.056262,-0.0269 -0.1135911,-0.0503 -0.1722045,-0.0695 v -7.06172 l 7.8391838,-4.52709 7.839186,4.52709 v 6.04825 c -6.52e-4,0.18136 0.146476,0.32855 0.32783,0.32784 0.180414,-6.3e-4 0.325989,-0.14743 0.325277,-0.32784 v -5.67513 c 0.357461,0.16605 0.797821,0.0344 0.998155,-0.31253 l 0.368649,-0.64162 c 0.211754,-0.36677 0.0823,-0.84381 -0.284457,-1.05556 l -3.083121,-1.78073 v -2.68003 c 0.217291,-0.10688 0.368649,-0.33109 0.368649,-0.58678 v -0.5906 c 0,-0.35714 -0.295969,-0.65374 -0.653107,-0.65374 h -2.613064 c -0.357137,0 -0.653106,0.2966 -0.653106,0.65374 v 0.5906 c 0,0.2383 0.131444,0.44904 0.32528,0.56317 v 0.84127 l -2.815884,-1.62639 c -0.278488,-0.16073 -0.622724,-0.16074 -0.901208,0 l -9.1243527,5.26949 c -0.3667681,0.21175 -0.4962071,0.68879 -0.2844571,1.05556 l 0.3692826,0.64162 c 0.2003435,0.34699 0.6400471,0.47859 0.9975182,0.31253 v 6.62864 c -0.1025807,0.0132 -0.2036907,0.037 -0.3010394,0.0708 -0.4055201,0.14085 -0.7574268,0.49752 -0.8412562,0.98286 -0.4153493,0.21179 -0.66313452,0.62369 -0.68244692,1.03259 -0.0138454,0.29301 0.0749478,0.59192 0.27744282,0.82467 0.1398528,0.16076 0.3360557,0.28206 0.566367,0.34187 V 294.986 H 1.4900659 c -0.181348,-7.3e-4 -0.3285353,0.14648 -0.3278266,0.32782 6.53e-4,0.18036 0.1474778,0.32598 0.3278266,0.32528 H 21.087713 c 0.1806,0.001 0.327764,-0.14468 0.328467,-0.32528 6.52e-4,-0.18159 -0.146871,-0.32889 -0.328467,-0.32782 h -0.325277 v -1.01984 c 0.230541,-0.0597 0.426403,-0.18099 0.566367,-0.34187 0.202493,-0.23275 0.29128,-0.53166 0.27744,-0.82467 -0.0193,-0.4089 -0.266458,-0.8208 -0.681806,-1.03259 -0.08383,-0.48536 -0.436371,-0.84137 -0.841893,-0.98254 -0.360483,-0.12551 -0.770972,-0.11194 -1.126354,0.0578 z m -1.459921,-14.40533 v 0.5906 h -2.613064 v -0.5906 z m -6.207061,0.90184 c 0.04335,0 0.08635,0.0111 0.12501,0.0332 3.318871,1.91734 5.80136,3.34872 9.12435,5.26694 0.06107,0.0353 0.07863,0.10541 0.04337,0.16647 l -0.368649,0.63908 c -0.03527,0.0611 -0.102823,0.0786 -0.163913,0.0433 l -8.596254,-4.96081 c -0.101366,-0.0587 -0.226467,-0.0587 -0.32783,0 l -8.5962544,4.96081 c -0.061081,0.0353 -0.1286488,0.0177 -0.1639133,-0.0433 l -0.368649,-0.63908 c -0.035274,-0.0611 -0.017699,-0.13119 0.043373,-0.16647 l 9.1237117,-5.26694 c 0.03867,-0.0223 0.08231,-0.0332 0.125646,-0.0332 z m 3.919276,0.34187 h 1.919136 v 2.23675 l -1.919136,-1.1085 z m -3.919276,2.28715 c -0.05756,-4e-5 -0.114103,0.0152 -0.163913,0.0439 l -2.2444167,1.29665 c -0.1564021,0.0898 -0.2103714,0.28943 -0.1205434,0.44582 0.090475,0.15571 0.2899272,0.20878 0.4458236,0.11861 l 2.0830495,-1.20098 2.082416,1.20098 c 0.155896,0.0901 0.355345,0.037 0.44582,-0.11861 0.08983,-0.15639 0.03585,-0.356 -0.120546,-0.44582 l -2.243776,-1.29665 c -0.0498,-0.0289 -0.106352,-0.0441 -0.163916,-0.0439 z m 0,1.63212 c -0.898129,-1e-5 -1.6346761,0.73653 -1.6346761,1.63467 0,0.89813 0.7365431,1.63213 1.6346761,1.63213 0.898135,0 1.634042,-0.734 1.634042,-1.63213 0,-0.89814 -0.73591,-1.63467 -1.634042,-1.63467 z m -0.0255,0.65374 c 0.0085,-2.1e-4 0.01698,0 0.0255,0 0.545171,0 0.980936,0.43576 0.980936,0.98093 0,0.54517 -0.435769,0.97903 -0.980936,0.97903 -0.545164,0 -0.981569,-0.43386 -0.981569,-0.97903 0,-0.53665 0.422846,-0.9676 0.956058,-0.98093 z m -6.8352911,1.95741 c -0.1803487,7.1e-4 -0.3259815,0.14747 -0.3252762,0.32783 6.531e-4,0.17934 0.1459202,0.32458 0.3252762,0.32528 h 3.2661672 c 0.1803521,7.1e-4 0.3271278,-0.14494 0.3278299,-0.32528 6.532e-4,-0.18135 -0.1464819,-0.32855 -0.3278299,-0.32783 z m 10.4477841,0 c -0.1806,3.6e-4 -0.326621,0.14723 -0.325917,0.32783 6.55e-4,0.1796 0.146313,0.32492 0.325917,0.32528 h 3.266167 c 0.180353,7.1e-4 0.327128,-0.14494 0.32783,-0.32528 6.53e-4,-0.18135 -0.146481,-0.32855 -0.32783,-0.32783 z m -10.7730603,1.30621 c -0.180352,-7.2e-4 -0.3271277,0.14493 -0.3278299,0.32527 -2.906e-4,0.14939 0.1008293,0.27994 0.2455517,0.31699 v 2.96066 c -0.1447219,0.037 -0.2458423,0.16761 -0.2455517,0.317 6.532e-4,0.18034 0.1474779,0.32598 0.3278299,0.32527 H 8.022414 c 0.1796042,-3.7e-4 0.3252142,-0.14567 0.3259163,-0.32527 6.531e-4,-0.14885 -0.099677,-0.27921 -0.2436412,-0.317 v -2.96066 c 0.1439642,-0.0378 0.2441571,-0.16814 0.2436412,-0.31699 -6.531e-4,-0.1796 -0.1463121,-0.32492 -0.3259163,-0.32527 z m 10.4471433,0 c -0.180348,-7.2e-4 -0.327124,0.14493 -0.327826,0.32527 -2.18e-4,0.14958 0.101218,0.28018 0.246189,0.31699 v 2.96066 c -0.144973,0.0368 -0.246407,0.16742 -0.246189,0.317 6.53e-4,0.18034 0.147478,0.32598 0.327826,0.32527 h 3.919914 c 0.179357,-6.9e-4 0.324578,-0.14593 0.325277,-0.32527 6.53e-4,-0.14885 -0.09968,-0.27921 -0.243638,-0.317 9.1e-5,-0.98779 0,-1.97318 0,-2.96066 0.14396,-0.0378 0.244154,-0.16815 0.243638,-0.31699 -6.53e-4,-0.17935 -0.14592,-0.32457 -0.325277,-0.32527 z m -9.8756755,0.65311 h 1.0606574 v 1.14293 H 4.6746046 Z m 1.7137635,0 h 1.063211 v 1.14293 H 6.3883681 Z m 8.73338,0 h 1.060661 v 1.14293 h -1.060661 z m 1.713768,0 h 1.06321 v 1.14293 h -1.06321 z m -3.91226,0.007 v 7.50179 H 9.654543 v -7.50179 z m -8.2486515,1.78839 h 1.0606574 v 1.14294 H 4.6746046 Z m 1.7137635,0 h 1.063211 v 1.14294 H 6.3883681 Z m 8.73338,0 h 1.060661 v 1.14294 h -1.060661 z m 1.713768,0 h 1.06321 v 1.14294 h -1.06321 z m -4.565366,2.4466 c -0.181347,-7.3e-4 -0.328539,0.14648 -0.327829,0.32782 v 0.32592 c -6.54e-4,0.18135 0.146482,0.32854 0.327829,0.32783 0.180352,-7.2e-4 0.325982,-0.14748 0.325276,-0.32783 v -0.32592 c 6.53e-4,-0.18034 -0.144927,-0.32711 -0.325276,-0.32782 z m -7.0170633,1.62255 c 0.1803487,-7.1e-4 0.3259816,-0.14747 0.3252762,-0.32782 0,-0.0971 -0.0095,-0.18977 -0.02743,-0.27745 0.1889599,-0.086 0.4157804,-0.0964 0.6033557,-0.0312 0.1389222,0.0483 0.2536371,0.12133 0.3271932,0.236 -0.1385174,0.0415 -0.2332373,0.16919 -0.2327965,0.3138 6.531e-4,0.17934 0.1459202,0.32457 0.3252763,0.32528 0.4935816,0 0.6475351,0.27682 0.6607605,0.55679 0.00666,0.13998 -0.038605,0.27219 -0.1186304,0.36418 -0.080038,0.0919 -0.1906841,0.15882 -0.3999002,0.15882 -0.1806001,-7.2e-4 -0.3274771,0.14531 -0.3278297,0.3259 v 1.30623 H 2.4684562 v -0.97839 h 2.940891 c 0.1806003,-3.6e-4 0.3266184,-0.14723 0.325913,-0.32784 -3.265e-4,-0.17985 -0.1460606,-0.32556 -0.325913,-0.3259 H 2.143172 c -0.2092161,0 -0.3224157,-0.0668 -0.4024505,-0.15882 -0.080038,-0.0919 -0.1246094,-0.2242 -0.1179936,-0.36418 0.013226,-0.27997 0.1665388,-0.55679 0.6601237,-0.55679 0.1803487,7.1e-4 0.3271245,-0.14494 0.3278266,-0.32528 6.531e-4,-0.14368 -0.092962,-0.2708 -0.230246,-0.31317 0.073942,-0.11219 0.1881893,-0.18512 0.3291067,-0.23407 0.1913405,-0.0665 0.4230168,-0.0571 0.6142005,0.0256 -0.019625,0.0923 -0.030598,0.18994 -0.030598,0.29275 6.531e-4,0.17936 0.1459202,0.32458 0.3252762,0.32528 0.179356,-6.9e-4 0.3245774,-0.14592 0.3252762,-0.32528 0,-0.46505 0.2451312,-0.59061 0.49238,-0.59061 0.246208,-7.5e-4 0.4891831,0.1196 0.4891851,0.57842 -6.511e-4,0.18128 0.1464839,0.32847 0.3278318,0.32775 z m 10.9363663,1.64425 c -3.26e-4,-0.18059 -0.14723,-0.32661 -0.327826,-0.32591 -0.20922,0 -0.319866,-0.0668 -0.3999,-0.15882 -0.08004,-0.0919 -0.12461,-0.22419 -0.117991,-0.36418 0.01322,-0.27997 0.166539,-0.5568 0.66012,-0.5568 0.179603,-3.6e-4 0.325214,-0.14566 0.325916,-0.32528 3.27e-4,-0.1446 -0.09428,-0.27227 -0.232797,-0.31379 0.07356,-0.11478 0.187641,-0.18777 0.326554,-0.23599 0.187617,-0.0652 0.415009,-0.0548 0.603996,0.0312 -0.01793,0.0878 -0.02805,0.18025 -0.02805,0.27745 -6.52e-4,0.18059 0.145316,0.32747 0.325916,0.32782 0.181348,7.3e-4 0.328539,-0.14648 0.32783,-0.32782 0,-0.44459 0.228124,-0.57167 0.477689,-0.57849 0.25767,7.5e-4 0.503198,0.12556 0.503198,0.59061 6.53e-4,0.17935 0.145924,0.32457 0.325279,0.32528 0.18035,7.1e-4 0.327126,-0.14494 0.327828,-0.32528 0,-0.10331 -0.125341,-0.29403 -0.03027,-0.29403 0.191003,-0.0816 0.420867,-0.0903 0.611339,-0.0242 0.141231,0.049 0.255818,0.12206 0.329741,0.23471 -0.13731,0.0421 -0.231014,0.16892 -0.230883,0.31252 6.53e-4,0.18035 0.147478,0.32599 0.327829,0.32527 0.493582,0 0.647535,0.27684 0.660761,0.55681 0.0067,0.13998 -0.03861,0.27219 -0.118633,0.36418 -0.08004,0.0919 -0.193234,0.15882 -0.402453,0.15882 h -3.266168 c -0.179604,7.1e-4 -0.324926,0.1463 -0.325277,0.3259 -6.52e-4,0.18036 0.144926,0.32713 0.325277,0.32784 h 2.940892 v 0.97839 H 16.18946 Z m -2.938305,0.65311 c 0.182841,0 0.325277,0.14244 0.325277,0.32528 v 0.32783 H 9.0014995 v -0.32783 c 0,-0.18284 0.142436,-0.32528 0.3252764,-0.32528 z"
       sodipodi:nodetypes="cscscsscccscsssscscccsscscsccccccccccccccsssssscccccccccscsscccsccscccssccccscccsccccccccccccscccccccsccccccccssssscsscsscccccccccccccccccccccccccccccccccccccccccccccccccccccccccccccccccccccccccccccccccsccssscsccsssccccccsccccccccssscccsccccscscccccsccccssccccccccssccccccccccsscscccsss" />
  </g>
</svg>
