<!-- icon666.com - MILLIONS vector ICONS FREE --><svg viewBox="0 -48 512 512" xmlns="http://www.w3.org/2000/svg"><path d="m272.53125 48.09375h16.03125v15.03125h-16.03125zm0 0"></path><path d="m304.59375 48.09375h16.03125v15.03125h-16.03125zm0 0"></path><path d="m336.65625 48.09375h16.03125v15.03125h-16.03125zm0 0"></path><path d="m479.9375 80.15625v-64.125h-303.59375v15.03125h288.5625v49.09375h-305.59375v-80.15625h-159.3125v383.75h128.25v-15.03125h-113.21875v-353.6875h129.25v65.125h-112.21875v15.03125h464.90625v273.53125h-65.125v-161.3125h-15.03125v176.34375c0 9.117188-7.164062 17.03125-16.28125 17.03125h-.125c-9.113281 0-16.65625-7.914062-16.65625-17.03125v-255.5h-239.46875v255.5c0 17.402344 14.660156 32.0625 32.0625 32.0625h224.4375c17.40625 0 31.0625-14.660156 31.0625-32.0625h80.15625v-303.59375zm-303.59375 320.625c-9.113281 0-17.03125-7.914062-17.03125-17.03125v-240.46875h209.40625v240.46875c0 6.054688 2.21875 12.023438 5.1875 17.03125zm0 0"></path><path d="m392.765625 207.40625h15.03125v168.328125h-15.03125zm0 0"></path><path d="m263.515625 200.390625h-79.15625v79.15625h79.15625zm-15.03125 64.125h-49.09375v-49.09375h49.09375zm0 0"></path><path d="m184.359375 168.328125h160.3125v15.03125h-160.3125zm0 0"></path><path d="m343.671875 296.578125h-159.3125v47.09375h159.3125zm-15.03125 32.0625h-129.25v-17.03125h129.25zm0 0"></path><path d="m184.359375 360.703125h160.3125v15.03125h-160.3125zm0 0"></path><path d="m280.546875 200.390625h64.125v15.03125h-64.125zm0 0"></path><path d="m280.546875 232.453125h64.125v15.03125h-64.125zm0 0"></path><path d="m280.546875 264.515625h64.125v15.03125h-64.125zm0 0"></path></svg>