<?xml version="1.0" encoding="UTF-8" standalone="no"?><svg viewBox="0 0 64 64" xmlns="http://www.w3.org/2000/svg" xmlns:xlink="http://www.w3.org/1999/xlink"><style>:root>svg{display:none}:root>svg:target{display:block}</style><svg viewBox="0 0 22.578 22.578" id="house_building_home_icon_230936" xmlns="http://www.w3.org/2000/svg"><path style="color:#000;display:inline;fill:#000;stroke-width:1;stroke-linecap:round;stroke-linejoin:round;-inkscape-stroke:none" d="M18.956 290.842a1.125 1.125 0 0 0-.811-.366c-.301 0-.603.133-.822.37a1.462 1.462 0 0 0-1.114-.064c-.404.14-.754.5-.837.986a1.244 1.244 0 0 0-.681 1.032c-.014.293.074.592.276.824.14.162.338.283.57.343v1.019H14.23v-.328a.986.986 0 0 0-.654-.921v-7.559a.663.663 0 0 0-.657-.658h-3.26c-.358 0-.658.299-.658.658v7.559a.986.986 0 0 0-.653.921v.328H7.041v-1.02a1.12 1.12 0 0 0 .57-.342c.202-.232.29-.531.277-.824a1.245 1.245 0 0 0-.681-1.032 1.275 1.275 0 0 0-.838-.986 1.462 1.462 0 0 0-1.114.064 1.125 1.125 0 0 0-.821-.37c-.298.001-.595.133-.812.367a1.435 1.435 0 0 0-.172-.07v-7.061l7.84-4.527 7.838 4.527v6.048a.327.327 0 1 0 .654 0v-5.675a.78.78 0 0 0 .998-.313l.368-.641a.777.777 0 0 0-.284-1.056l-3.083-1.78v-2.68a.658.658 0 0 0 .368-.588v-.59a.658.658 0 0 0-.653-.654h-2.613a.658.658 0 0 0-.653.654v.59c0 .239.132.45.325.564v.84l-2.816-1.625a.902.902 0 0 0-.9 0l-9.125 5.269a.777.777 0 0 0-.285 1.056l.37.641c.2.347.64.479.997.313v6.628a1.504 1.504 0 0 0-.3.071c-.406.141-.758.498-.842.983a1.244 1.244 0 0 0-.682 1.033c-.014.293.074.592.277.824.14.161.336.282.566.342v1.02H1.49a.327.327 0 1 0 0 .653h19.598a.327.327 0 1 0 0-.653h-.326v-1.02c.231-.06.427-.18.567-.342.202-.232.291-.531.277-.824a1.244 1.244 0 0 0-.682-1.033 1.279 1.279 0 0 0-.841-.983 1.492 1.492 0 0 0-1.127.058zm-1.46-14.405v.59h-2.613v-.59zm-6.207.902c.044 0 .087.01.125.033l9.125 5.267a.118.118 0 0 1 .043.166l-.369.64a.115.115 0 0 1-.164.043l-8.596-4.961a.327.327 0 0 0-.328 0l-8.596 4.96a.115.115 0 0 1-.164-.043l-.369-.639a.118.118 0 0 1 .044-.166l9.124-5.267a.252.252 0 0 1 .125-.033zm3.92.342h1.919v2.236l-1.92-1.108zm-3.92 2.287a.328.328 0 0 0-.164.044l-2.244 1.296a.327.327 0 1 0 .325.564l2.083-1.2 2.083 1.2c.156.09.355.038.445-.118a.327.327 0 0 0-.12-.446l-2.244-1.296a.324.324 0 0 0-.164-.044zm0 1.632a1.64 1.64 0 0 0-1.634 1.635c0 .898.736 1.632 1.634 1.632.898 0 1.634-.734 1.634-1.632a1.64 1.64 0 0 0-1.634-1.635zm-.025.654h.025c.545 0 .981.435.981.98a.975.975 0 0 1-.98.98.976.976 0 0 1-.982-.98c0-.536.422-.967.956-.98zm-6.836 1.957a.327.327 0 0 0 0 .653h3.267a.327.327 0 1 0 0-.653zm10.448 0a.327.327 0 0 0 0 .653h3.266a.327.327 0 1 0 0-.653zm-10.773 1.306a.327.327 0 0 0-.082.642v2.961a.327.327 0 0 0 .082.642h3.92a.327.327 0 0 0 .082-.642v-2.96a.327.327 0 0 0-.083-.643zm10.447 0a.327.327 0 0 0-.081.642v2.961a.327.327 0 0 0 .081.642h3.92a.327.327 0 0 0 .082-.642v-2.96a.327.327 0 0 0-.082-.643zm-9.875.653h1.06v1.143h-1.06Zm1.713 0h1.064v1.143H6.388Zm8.734 0h1.06v1.143h-1.06zm1.714 0h1.063v1.143h-1.063zm-3.913.007v7.502H9.655v-7.502zm-8.248 1.789h1.06v1.143h-1.06Zm1.713 0h1.064v1.143H6.388Zm8.734 0h1.06v1.143h-1.06zm1.714 0h1.063v1.143h-1.063zm-4.566 2.446a.327.327 0 0 0-.328.328v.326a.327.327 0 1 0 .653 0v-.326a.327.327 0 0 0-.325-.328zm-7.017 1.623c.18 0 .326-.148.325-.328 0-.097-.01-.19-.027-.277a.834.834 0 0 1 .603-.032.606.606 0 0 1 .327.236.327.327 0 0 0 .093.64c.494 0 .648.276.66.556a.52.52 0 0 1-.118.364c-.08.092-.19.16-.4.16a.327.327 0 0 0-.328.325v1.306h-3.92v-.978H5.41a.327.327 0 0 0 0-.654H2.143c-.209 0-.322-.067-.402-.159a.52.52 0 0 1-.118-.364c.013-.28.166-.557.66-.557a.327.327 0 0 0 .097-.638.618.618 0 0 1 .33-.234.873.873 0 0 1 .614.026c-.02.092-.03.19-.03.292 0 .18.145.325.324.326.18-.001.325-.146.326-.326 0-.465.245-.59.492-.59.246-.001.49.12.49.578-.001.181.146.329.327.328zm10.936 1.644a.327.327 0 0 0-.327-.326c-.21 0-.32-.067-.4-.159a.52.52 0 0 1-.118-.364c.013-.28.166-.557.66-.557a.327.327 0 0 0 .093-.639.604.604 0 0 1 .327-.236.836.836 0 0 1 .604.032c-.018.087-.029.18-.029.277a.327.327 0 1 0 .654 0c0-.445.228-.572.478-.578.258 0 .503.125.503.59a.327.327 0 0 0 .653 0c0-.103-.125-.294-.03-.294a.873.873 0 0 1 .611-.024.617.617 0 0 1 .33.235.327.327 0 0 0 .097.637c.494 0 .648.277.66.557a.52.52 0 0 1-.118.364c-.08.092-.193.16-.402.16h-3.267a.327.327 0 0 0 0 .653h2.941v.978h-3.92Zm-2.938.653c.183 0 .325.143.325.326v.327H9.001v-.327c0-.183.143-.326.326-.326z" transform="translate(0 -274.422)"/></svg><svg viewBox="0 0 22.578 22.578" id="house_building_home_icon_230971" xmlns="http://www.w3.org/2000/svg"><path style="color:#000;display:inline;fill:#000;stroke-width:.999999;stroke-linecap:round;stroke-linejoin:round;-inkscape-stroke:none" d="M14.951 275.392a.67.67 0 0 0-.665.666v.602h3.994v-.602a.67.67 0 0 0-.666-.666zm6.437 7.375-9.972-5.756a.257.257 0 0 0-.252 0L1.19 282.77l.5.862 9.433-5.443c.103-.059.23-.059.332 0l9.432 5.444zm-6.768-5.441v.766l3.284 1.896v-2.662zm-3.33 1.532-8.655 4.998v6.75c.284-.037.58.005.846.133.22-.237.522-.374.824-.375.308 0 .616.136.838.378.357-.174.77-.192 1.133-.066a1.3 1.3 0 0 1 .855 1.012c.419.217.673.63.692 1.044a1.19 1.19 0 0 1-.282.84 1.14 1.14 0 0 1-.58.347v1.04h-.665v-.997H2.302v.997h-.998a.333.333 0 1 0 0 .666h19.972a.333.333 0 0 0 0-.666h-1v-.997h-3.994v.997h-.665v-1.046a1.173 1.173 0 0 1-.858-1.017c-.04-.472.206-.985.693-1.224.087-.492.442-.854.852-.996.36-.125.768-.11 1.123.06.217-.237.52-.365.83-.372.318-.001.632.126.857.368.262-.122.552-.162.831-.126v-6.749zm.166.843 2.29 1.321a.333.333 0 0 1-.335.576l-2.122-1.224-2.122 1.224a.333.333 0 0 1-.455-.121.333.333 0 0 1 .123-.455l2.29-1.32c.082-.055.237-.055.331 0zm-.167 1.618c.915 0 1.665.75 1.665 1.666 0 .915-.75 1.663-1.665 1.663a1.667 1.667 0 0 1-1.663-1.663 1.67 1.67 0 0 1 1.663-1.666zm-.997 1.666c0 .556.442.998.997.998.556 0 1-.442 1-.998a.998.998 0 1 0-1.997 0zm-5.991.995h3.325a.333.333 0 1 1 0 .666H4.301a.333.333 0 1 1 0-.666zm10.645 0h3.326a.333.333 0 1 1 0 .666h-3.326a.333.333 0 1 1 0-.666zm-10.98 1.331H7.96a.333.333 0 0 1 .084.656v3.014a.333.333 0 0 1-.084.656H3.967a.333.333 0 0 1-.084-.654v-3.018a.333.333 0 0 1 .084-.654zm10.646 0h3.994a.333.333 0 0 1 .084.656v3.014a.333.333 0 0 1-.084.656h-3.994a.333.333 0 0 1-.083-.654v-3.018a.333.333 0 0 1 .083-.654zm-4.983.003h3.32c.367 0 .67.305.67.67v7.706a1 1 0 0 1 .667.936v.334h-.666v-.334a.325.325 0 0 0-.33-.332h-4a.325.325 0 0 0-.33.332v.334h-.666v-.334a1 1 0 0 1 .667-.936v-7.705c0-.366.302-.67.668-.67zm-5.08.663v1.165h1.083v-1.165zm1.749 0v1.165h1.08v-1.165zm8.896 0v1.165h1.084v-1.165zm1.75 0v1.165h1.08v-1.165zm-7.318.008v7.644h3.328v-7.644zm-5.077 1.822v1.165h1.083v-1.165zm1.749 0v1.165h1.08v-1.165zm8.896 0v1.165h1.084v-1.165zm1.75 0v1.165h1.08v-1.165zm-4.655 2.493c.184.001.332.15.331.334v.332a.333.333 0 1 1-.665 0v-.332c-.001-.184.149-.334.334-.334zm-8.494 1.111a.333.333 0 0 1-.47.034.83.83 0 0 0-.785-.14c-.253.088-.423.256-.423.602 0 .15-.099.28-.251.324a.56.56 0 0 0-.425.61c.022.253.142.456.529.456h4.66c.386 0 .506-.203.527-.457a.557.557 0 0 0-.432-.611.333.333 0 0 1-.243-.323c0-.34-.174-.509-.432-.598a.863.863 0 0 0-.8.132c-.143.118-.385.089-.47-.044-.111-.21-.214-.366-.491-.366-.222 0-.394.144-.494.381zm13.98 0a.333.333 0 0 1-.469.034.83.83 0 0 0-.786-.14c-.252.088-.422.256-.422.602 0 .15-.1.28-.252.324a.56.56 0 0 0-.424.61c.021.253.141.456.528.456h4.66c.387 0 .507-.203.528-.457a.557.557 0 0 0-.432-.611.333.333 0 0 1-.243-.323c-.001-.34-.174-.509-.433-.598a.863.863 0 0 0-.8.132c-.142.118-.385.089-.47-.044-.109-.206-.21-.36-.484-.366-.228 0-.4.144-.5.381z" transform="translate(0 -274.422)"/></svg><svg viewBox="0 0 22.578 22.578" id="house_building_home_icon_231000" xmlns="http://www.w3.org/2000/svg"><g style="display:inline;stroke-width:.810299"><path style="color:#000;fill:#e2f0fa;stroke-width:.810299;stroke-linecap:round;stroke-linejoin:round;-inkscape-stroke:none" d="M-46.832 98.213v-3.184h-2.611v1.98z" transform="matrix(1.23411 0 0 1.23411 75.575 -114.714)"/><path style="color:#000;fill:#c8dae5;fill-opacity:1;stroke-width:3.06255;stroke-linecap:round;stroke-linejoin:round;-inkscape-stroke:none" d="M-186.873 363.291h6.487a1.383 1.383 45 0 1 1.382 1.383v6.525h2v-12.033h-9.87" transform="matrix(.32653 0 0 .32653 75.575 -114.714)"/><path style="color:#000;fill:#e2f0fa;stroke-width:.810299;stroke-linecap:round;stroke-linejoin:round;-inkscape-stroke:none" d="m-51.922 95.807-6.918 3.992a.265.265 0 0 0-.133.23v9.85a.265.265 0 0 0 .264.266h13.234a.265.265 0 0 0 .266-.266v-9.85a.265.265 0 0 0-.123-.224l-6.316-3.994a.265.265 0 0 0-.274-.004z" transform="matrix(1.23411 0 0 1.23411 75.575 -114.714)"/><path style="color:#000;fill:#c8dae5;fill-opacity:1;stroke-width:3.06255;stroke-linecap:round;stroke-linejoin:round;-inkscape-stroke:none" d="M-170.87 415.291v-37.227h-2v37.227z" transform="matrix(.32653 0 0 .32653 75.575 -114.714)"/><path style="color:#000;fill:#c8dae5;fill-opacity:1;stroke-width:3.06255;stroke-linecap:round;stroke-linejoin:round;-inkscape-stroke:none" d="M-170.87 378.064a1 1 0 0 0-.464-.85l-23.873-15.095a1 1 0 0 0-1.033-.015l-26.147 15.09a1 1 0 0 0-.502.87v5.258l26.006-14.95 26.014 14.952z" transform="matrix(.32653 0 0 .32653 75.575 -114.714)"/><path style="color:#000;fill:#dc1c4b;stroke-width:.810299;stroke-linecap:round;stroke-linejoin:round;-inkscape-stroke:none" d="m-52.457 94.883-7.393 4.27a.63.63 0 0 0-.23.855l.3.52a.63.63 0 0 0 .856.228l6.832-3.943 6.832 3.943a.632.632 0 0 0 .858-.229l.298-.52a.63.63 0 0 0-.228-.855l-7.395-4.27a.732.732 0 0 0-.73 0z" transform="matrix(1.23411 0 0 1.23411 75.575 -114.714)"/><path style="color:#000;fill:#143441;fill-opacity:1;stroke-width:.810299;stroke-linecap:round;stroke-linejoin:round;-inkscape-stroke:none" d="M-55.531 109.879v-1.852a.265.265 0 0 0-.266-.265h-3.705a.265.265 0 0 0-.266.265v1.852z" transform="matrix(1.23411 0 0 1.23411 75.575 -114.714)"/><path style="color:#000;fill:#70c2ef;stroke-width:.810299;stroke-linecap:round;stroke-linejoin:round;-inkscape-stroke:none" d="M-57.715 101.941a.265.265 0 0 0-.265.266v2.91a.265.265 0 0 0 .265.264h2.778a.265.265 0 0 0 .265-.264v-2.91a.265.265 0 0 0-.266-.266z" transform="matrix(1.23411 0 0 1.23411 75.575 -114.714)"/><path style="color:#000;fill:#5aabdd;fill-opacity:1;stroke-width:3.06255;stroke-linecap:round;stroke-linejoin:round;-inkscape-stroke:none" d="M-218.135 385.291a1 1 0 0 0-1.004 1.004v2.996h9.5a1 1 0 0 1 1.004 1.004v7.994h.996a1 1 0 0 0 1.004-.996v-10.998a1 1 0 0 0-1.004-1.004z" transform="matrix(.32653 0 0 .32653 75.575 -114.714)"/><path style="color:#000;fill:#e2f0fa;stroke-width:3.06255;stroke-linecap:round;stroke-linejoin:round;-inkscape-stroke:none" d="M-213.883 385.291v5.498h-5.256v2.002h5.256v5.498h2v-5.498h5.248v-2.002h-5.248v-5.498z" transform="matrix(.32653 0 0 .32653 75.575 -114.714)"/><path style="color:#000;fill:#3a4d5c;stroke-width:.810299;stroke-linecap:round;stroke-linejoin:round;-inkscape-stroke:none" d="M-53.412 101.945c-.291 0-.531.24-.531.532v6.343a.265.265 0 0 0 .263.266h3.176a.265.265 0 0 0 .266-.266v-6.343a.536.536 0 0 0-.533-.532z" transform="matrix(1.23411 0 0 1.23411 75.575 -114.714)"/><path style="color:#000;fill:#143441;fill-opacity:1;stroke-width:3.06255;stroke-linecap:round;stroke-linejoin:round;-inkscape-stroke:none" d="M-201.873 385.305a2.02 2.02 0 0 0-2.008 2h9.988c1.1 0 2.016.908 2.016 2.007v22.981h.996a1 1 0 0 0 1.004-1.004v-23.976c0-1.1-.916-2.008-2.015-2.008z" transform="matrix(.32653 0 0 .32653 75.575 -114.714)"/><path style="color:#000;fill:#a3b9c9;stroke-width:.810299;stroke-linecap:round;stroke-linejoin:round;-inkscape-stroke:none" d="M-53.682 108.557a.795.795 0 0 0-.79.79v.532a.265.265 0 0 0 .263.266h4.234a.265.265 0 0 0 .266-.266v-.531a.796.796 0 0 0-.793-.791z" transform="matrix(1.23411 0 0 1.23411 75.575 -114.714)"/><path style="color:#000;fill:#3a4d5c;fill-opacity:1;stroke-width:.810299;stroke-linecap:round;stroke-linejoin:round;-inkscape-stroke:none" d="m-52.223 97.48-1.82 1.051a.265.265 0 0 0-.098.362.265.265 0 0 0 .362.097l1.687-.974 1.688.974a.265.265 0 0 0 .361-.097.265.265 0 0 0-.096-.362l-1.82-1.05a.265.265 0 0 0-.264 0z" transform="matrix(1.23411 0 0 1.23411 75.575 -114.714)"/><path style="color:#000;fill:#dc1c4b;stroke-width:.810299;stroke-linecap:round;stroke-linejoin:round;-inkscape-stroke:none" d="M-49.18 94.055c-.29 0-.529.24-.529.529v.478c0 .29.24.53.53.53h2.117c.289 0 .529-.24.529-.53v-.478c0-.29-.24-.53-.53-.53z" transform="matrix(1.23411 0 0 1.23411 75.575 -114.714)"/><path style="color:#000;fill:#e2f0fa;stroke-width:.810299;stroke-linecap:round;stroke-linejoin:round;-inkscape-stroke:none" d="M-51.297 105.908a.265.265 0 0 0-.266.266v.263a.265.265 0 0 0 .266.266.265.265 0 0 0 .264-.266v-.263a.265.265 0 0 0-.264-.266z" transform="matrix(1.23411 0 0 1.23411 75.575 -114.714)"/><path style="color:#000;fill:#70c2ef;stroke-width:.810299;stroke-linecap:round;stroke-linejoin:round;-inkscape-stroke:none" d="M-49.25 101.941a.265.265 0 0 0-.266.266v2.91a.265.265 0 0 0 .266.264h2.777a.265.265 0 0 0 .266-.264v-2.91a.265.265 0 0 0-.266-.266z" transform="matrix(1.23411 0 0 1.23411 75.575 -114.714)"/><path style="color:#000;fill:#5aabdd;fill-opacity:1;stroke-width:3.06255;stroke-linecap:round;stroke-linejoin:round;-inkscape-stroke:none" d="M-186.143 385.291a1 1 0 0 0-1.003 1.004v2.996h9.501a1 1 0 0 1 1.004 1.004v7.994h.996a1 1 0 0 0 1.004-.996v-10.998a1 1 0 0 0-1.004-1.004z" transform="matrix(.32653 0 0 .32653 75.575 -114.714)"/><path style="color:#000;fill:#e2f0fa;stroke-width:3.06255;stroke-linecap:round;stroke-linejoin:round;-inkscape-stroke:none" d="M-181.89 385.291v5.498h-5.256v2.002h5.255v5.498h2.002v-5.498h5.248v-2.002h-5.248v-5.498z" transform="matrix(.32653 0 0 .32653 75.575 -114.714)"/><path style="color:#000;fill:#3a4d5c;fill-opacity:1;stroke-width:.810299;stroke-linecap:round;stroke-linejoin:round;-inkscape-stroke:none" d="M-57.648 100.883a.265.265 0 0 0-.266.265.265.265 0 0 0 .266.264h2.644a.265.265 0 0 0 .266-.264.265.265 0 0 0-.266-.265zM-49.184 100.883a.265.265 0 0 0-.265.265.265.265 0 0 0 .265.264h2.645a.265.265 0 0 0 .266-.264.265.265 0 0 0-.266-.265z" transform="matrix(1.23411 0 0 1.23411 75.575 -114.714)"/><path style="color:#000;display:inline;fill:#9ccc65;fill-opacity:1;stroke-width:.810299;stroke-linecap:round;stroke-linejoin:round;-inkscape-stroke:none" d="M-55.797 108.82a.938.938 0 0 0 .947-.848A1 1 0 0 0-55.4 107a1.038 1.038 0 0 0-.683-.79c-.29-.101-.617-.09-.902.043a.924.924 0 0 0-.682-.293.92.92 0 0 0-.66.295 1.181 1.181 0 0 0-.893-.047 1.033 1.033 0 0 0-.677.792 1 1 0 0 0-.551.973c.036.43.4.848.947.848z" transform="matrix(1.23411 0 0 1.23411 75.575 -114.714)"/><path style="color:#000;fill:#143441;fill-opacity:1;stroke-width:.810299;stroke-linecap:round;stroke-linejoin:round;-inkscape-stroke:none" d="M-44.416 109.879v-1.852a.265.265 0 0 0-.264-.265h-3.707a.265.265 0 0 0-.263.265v1.852z" transform="matrix(1.23411 0 0 1.23411 75.575 -114.714)"/><path style="color:#000;display:inline;fill:#9ccc65;fill-opacity:1;stroke-width:.810299;stroke-linecap:round;stroke-linejoin:round;-inkscape-stroke:none" d="M-44.68 108.82a.938.938 0 0 0 .947-.848 1 1 0 0 0-.552-.973 1.038 1.038 0 0 0-.683-.79c-.289-.101-.617-.09-.902.043a.924.924 0 0 0-.682-.293.92.92 0 0 0-.66.295 1.181 1.181 0 0 0-.893-.047 1.033 1.033 0 0 0-.677.792 1 1 0 0 0-.551.973c.036.43.4.848.947.848z" transform="matrix(1.23411 0 0 1.23411 75.575 -114.714)"/><path style="color:#000;fill:#c8dae5;fill-opacity:1;stroke-width:3.06255;stroke-linecap:round;stroke-linejoin:round;-inkscape-stroke:none" d="M-213.883 385.291v4h2v-4zm5.248 5.498v2.002h2v-2.002z" transform="matrix(.32653 0 0 .32653 75.575 -114.714)"/><path style="color:#000;fill:#3a4d5c;stroke-width:.810299;stroke-linecap:round;stroke-linejoin:round;-inkscape-stroke:none" d="M-57.914 101.941a.265.265 0 0 0-.266.266.265.265 0 0 0 .266.264h3.176a.265.265 0 0 0 .265-.264.265.265 0 0 0-.265-.266zM-57.914 104.852a.265.265 0 0 0-.266.265.265.265 0 0 0 .266.264h3.176a.265.265 0 0 0 .265-.264.265.265 0 0 0-.265-.265zM-49.45 104.852a.265.265 0 0 0-.265.265.265.265 0 0 0 .266.264h3.176a.265.265 0 0 0 .265-.264.265.265 0 0 0-.265-.265z" transform="matrix(1.23411 0 0 1.23411 75.575 -114.714)"/><path style="color:#000;fill:#c8dae5;fill-opacity:1;stroke-width:.810299;stroke-linecap:round;stroke-linejoin:round;-inkscape-stroke:none" d="M-48.125 101.942V103h.53v-1.058zm1.389 1.454v.53h.529v-.53z" transform="matrix(1.23411 0 0 1.23411 75.575 -114.714)"/><path style="color:#000;fill:#3a4d5c;stroke-width:.810299;stroke-linecap:round;stroke-linejoin:round;-inkscape-stroke:none" d="M-49.45 101.941a.265.265 0 0 0-.265.266.265.265 0 0 0 .266.264h3.176a.265.265 0 0 0 .265-.264.265.265 0 0 0-.265-.266zM-52.091 98.768c-.728 0-1.324.596-1.324 1.324 0 .727.596 1.322 1.324 1.322.728 0 1.322-.595 1.322-1.322 0-.728-.594-1.324-1.322-1.324z" transform="matrix(1.23411 0 0 1.23411 75.575 -114.714)"/><path style="color:#000;fill:#143441;fill-opacity:1;stroke-width:.810299;stroke-linecap:round;stroke-linejoin:round;-inkscape-stroke:none" d="M-52.091 98.768c-.5 0-.937.28-1.162.691.188-.103.404-.162.632-.162a1.327 1.327 0 0 1 1.162 1.956c.41-.225.69-.662.69-1.161 0-.728-.595-1.324-1.322-1.324z" transform="matrix(1.23411 0 0 1.23411 75.575 -114.714)"/><path style="color:#000;fill:#70c2ef;fill-opacity:1;stroke-width:.810299;stroke-linecap:round;stroke-linejoin:round;-inkscape-stroke:none" d="M-52.092 99.297c.442 0 .795.353.795.795a.792.792 0 0 1-.795.795.79.79 0 0 1-.793-.795.79.79 0 0 1 .793-.795z" transform="matrix(1.23411 0 0 1.23411 75.575 -114.714)"/><path style="color:#000;fill:#b01d47;fill-opacity:1;stroke-width:.810299;stroke-linecap:round;stroke-linejoin:round;-inkscape-stroke:none" d="M-49.18 94.055c-.29 0-.53.24-.53.529h2.119c.289 0 .529.24.529.53v.478c.29 0 .529-.24.529-.53v-.478c0-.29-.24-.53-.53-.53z" transform="matrix(1.23411 0 0 1.23411 75.575 -114.714)"/><path style="color:#000;fill:#b01d47;fill-opacity:1;stroke-width:3.06255;stroke-linecap:round;stroke-linejoin:round;-inkscape-stroke:none" d="M-197.883 358.432c9.437 5.358 18.9 10.873 28.328 16.316a2.38 2.38 0 0 1 .864 3.234l-1.13 1.963c-.251.437-.627.76-1.058.957 1.095.512 2.444.107 3.059-.957l1.129-1.963a2.38 2.38 0 0 0-.864-3.234l-27.947-16.137c-.843-.456-1.654-.482-2.38-.18z" transform="matrix(.32653 0 0 .32653 75.575 -114.714)"/><path style="color:#000;display:inline;fill:#74a838;fill-opacity:1;stroke-width:3.06255;stroke-linecap:round;stroke-linejoin:round;-inkscape-stroke:none" d="M-178.438 401.592a4.463 4.463 0 0 0-3.375-.18 3.904 3.904 0 0 0-2.558 2.994c-1.465.719-2.202 2.26-2.084 3.678.02.229.064.457.13.68.275-.971.94-1.86 1.954-2.358a3.904 3.904 0 0 1 2.558-2.994 4.464 4.464 0 0 1 3.375.18 3.478 3.478 0 0 1 2.495-1.117 3.492 3.492 0 0 1 2.576 1.107c3.098-1.159 6.25 1.625 6.076 4.502a3.544 3.544 0 0 1-3.58 3.205h2c4.088 0 4.797-5.248 1.497-6.883-.526-2.935-3.644-3.902-5.992-2.825a3.491 3.491 0 0 0-2.577-1.107 3.48 3.48 0 0 0-2.495 1.118z" transform="matrix(.32653 0 0 .32653 75.575 -114.714)"/><path style="color:#000;display:inline;fill:#74a838;fill-opacity:1;stroke-width:.810299;stroke-linecap:round;stroke-linejoin:round;-inkscape-stroke:none" d="M-59.22 106.207a1.033 1.033 0 0 0-.676.792 1 1 0 0 0-.552.973c.005.06.017.121.035.18a.991.991 0 0 1 .517-.624c.069-.39.35-.679.677-.792.286-.1.61-.088.893.048a.92.92 0 0 1 .66-.296c.252-.001.503.1.681.293.82-.307 1.654.43 1.608 1.191a.938.938 0 0 1-.947.848h.529c1.081 0 1.269-1.388.396-1.821-.14-.777-.964-1.032-1.586-.747a.924.924 0 0 0-.681-.293.92.92 0 0 0-.66.295 1.18 1.18 0 0 0-.893-.047z" transform="matrix(1.23411 0 0 1.23411 75.575 -114.714)"/><path style="color:#000;fill:#7d8e9e;fill-opacity:1;stroke-width:3.06255;stroke-linecap:round;stroke-linejoin:round;-inkscape-stroke:none" d="M-202.89 410.293c-1.342 0-2.49.901-2.864 2.127.273-.083.564-.127.863-.127h12.018c1.64 0 2.996 1.35 2.996 2.99v1.012h.996a1 1 0 0 0 1.004-1.004v-2.008c0-1.64-1.355-2.99-2.996-2.99z" transform="matrix(.32653 0 0 .32653 75.575 -114.714)"/><path style="color:#000;fill:#a3b9c9;stroke-width:.810299;stroke-linecap:round;stroke-linejoin:round;-inkscape-stroke:none" d="M-60.031 109.615a.265.265 0 0 0-.266.264.265.265 0 0 0 .266.266h15.88a.265.265 0 0 0 .264-.266.265.265 0 0 0-.263-.264z" transform="matrix(1.23411 0 0 1.23411 75.575 -114.714)"/><path style="color:#000;fill:#5aabdd;fill-opacity:1;stroke-width:.810299;stroke-linecap:round;stroke-linejoin:round;-inkscape-stroke:none" d="M-52.092 99.297a.802.802 0 0 0-.232.034c.491.114.88.504.992.996a.791.791 0 0 0-.76-1.03z" transform="matrix(1.23411 0 0 1.23411 75.575 -114.714)"/></g></svg></svg>